<svg width="120" height="120" fill="none" xmlns="http://www.w3.org/2000/svg"><path d="M0 0h120v120H0z"/><path d="M119.862 57.352c-1.245-2.598-7.327-3.82-12.858-4.432V29.847l2.075 4.737c.276.612.691.918 1.243.918.14 0 .415 0 .553-.153.692-.306.968-1.223.692-1.988l-4.563-10.848c0-.153-.138-.153-.138-.306l-3.18-7.486c6.636-2.14 16.314-6.725 15.209-11.46-.554-2.14-2.904-3.21-7.328-3.21-3.594 0-8.157.765-12.996 2.139-8.985 2.598-18.11 7.64-17.004 12.072.554 2.445 3.594 3.208 7.19 3.208 3.87 0 8.709-.916 12.165-1.833l3.317 7.793v29.338c-.967 0-1.934-.153-2.764-.153 0-.153.138-.459.138-.765V23.736l-.138-.154c-1.107-4.737-12.304-6.112-19.216-6.112-7.19 0-19.217 1.375-19.217 6.876v5.653h-4.839v-5.653c0-5.348-12.167-6.876-19.217-6.876-9.262 0-19.216 2.139-19.216 6.876V51.85c0 .153 0 .459.138.612h-5.115V23.429l3.318-7.792c3.456.916 8.157 1.833 12.165 1.833 3.734 0 6.636-.764 7.19-3.209 1.105-4.584-8.02-9.474-17.004-12.072C12.027-.254 4.702-.713 1.797 1.12a3.466 3.466 0 0 0-1.52 2.14c-.553 2.14 1.106 4.431 4.838 6.877 2.764 1.68 6.36 3.361 10.37 4.735l-3.18 7.488c0 .153-.139.153-.139.306l-4.7 10.695c-.276.765 0 1.681.69 1.987.139.153.415.153.553.153.553 0 .969-.305 1.245-.918l2.073-4.737v22.616H9.401c-2.903 0-5.254 2.598-5.254 5.806v38.354c0 2.139 1.106 3.972 2.627 5.042l-6.36 7.029a1.588 1.588 0 0 0 0 2.139c.278.305.553.458.969.458.414 0 .69-.153.968-.458l7.603-8.404h1.935v7.334c0 .765.553 1.528 1.383 1.528s1.383-.611 1.383-1.528v-7.334h1.935l7.604 8.404c.276.305.553.458.967.458.416 0 .692-.153.968-.458a1.585 1.585 0 0 0 0-2.139l-5.667-6.265H35.53a36.391 36.391 0 0 0 6.636 7.487l-6.776 7.488a1.588 1.588 0 0 0 0 2.139c.278.305.553.458.97.458.413 0 .69-.153.967-.458l7.188-7.945c4.839 3.208 10.37 5.041 16.314 5.041a28.95 28.95 0 0 0 16.314-5.042l7.188 7.946c.277.305.553.458.967.458.415 0 .691-.153.969-.458a1.588 1.588 0 0 0 0-2.139l-6.776-7.488c7.743-6.417 12.859-16.503 12.859-27.963 0-1.376-.138-2.75-.278-4.125 1.245 0 2.35.153 3.595.153v18.03l-11.475 12.683a1.585 1.585 0 0 0 0 2.139c.276.305.554.458.968.458.415 0 .691-.153.967-.458l9.54-10.544v5.043l-3.042 3.362a1.585 1.585 0 0 0 0 2.139c.276.305.554.458.968.458.416 0 .692-.153.968-.458l1.106-1.223v.153c0 .765.552 1.529 1.382 1.529.692 0 1.383-.612 1.383-1.529v-3.208l2.904-3.209 2.902 3.209v3.208c0 .765.554 1.529 1.383 1.529.83 0 1.382-.612 1.382-1.529v-.153l1.107 1.223c.276.305.552.458.967.458.414 0 .692-.153.968-.458a1.586 1.586 0 0 0 0-2.139l-3.042-3.515v-5.041l9.54 10.542c.276.305.553.459.967.459.416 0 .692-.154.968-.459a1.586 1.586 0 0 0 0-2.139l-11.475-12.683V77.368c6.222-.61 12.996-2.139 12.996-5.5V57.352h-.138zm-35.53-43.854c0-1.07 4.425-5.196 15.069-8.405 10.645-3.208 16.452-1.985 16.867-1.069 0 1.07-4.147 4.89-13.687 7.946l-1.659-3.974a1.323 1.323 0 0 0-1.797-.763c-.692.305-.968 1.222-.692 1.985l1.383 3.362c-9.678 2.904-15.069 1.835-15.484.918zM2.626 4.024c.138-.459 1.798-1.07 4.702-1.07 2.764 0 6.911.458 12.164 2.14 10.646 3.208 15.209 7.335 15.07 8.404-.414.917-5.805 1.986-15.483-.612l1.383-3.361c.276-.764 0-1.68-.692-1.986-.692-.306-1.52 0-1.797.763l-1.66 3.82C6.774 8.915 2.627 5.095 2.627 4.024zm114.748 64.788c-1.383-.612-3.18-1.222-5.115-1.528V56.74c3.04.612 4.699 1.376 5.115 1.835v10.237zm-40.37 39.27c-.138 0-.414.153-.552.305-.138.153-.416.306-.554.459l-.967-1.833c1.66-1.07 3.042-2.292 4.424-3.82l1.382 1.528c-1.105 1.222-2.35 2.443-3.733 3.361zm-35.807-3.361l1.383-1.529c1.384 1.376 2.905 2.751 4.424 3.821l-.967 1.833a18.526 18.526 0 0 1-4.84-4.125zm6.914 3.055c1.659.917 3.456 1.833 5.253 2.445l-.553 2.139c-1.935-.612-3.87-1.528-5.667-2.598l.967-1.986zm6.498 2.751c1.797.458 3.732.764 5.53.764v2.139c-2.074 0-4.148-.306-6.083-.917l.553-1.986zm7.05.917c1.935 0 3.732-.306 5.53-.765l.552 2.14a39.199 39.199 0 0 1-6.082.917v-2.292zm6.912-1.223c1.797-.612 3.595-1.375 5.254-2.445l.968 1.833c-1.797 1.07-3.734 1.988-5.669 2.598l-.553-1.986zm-7.603-.305c-13.964 0-25.438-12.683-25.438-28.117 0-9.778 4.562-18.64 11.89-23.836 4.56-.764 8.294-1.986 9.953-3.972 2.074-.306 4.286-.306 6.499-.153 1.659 2.292 6.22 3.666 10.92 4.278 7.329 5.194 11.752 14.058 11.752 23.683-.138 15.587-11.613 28.116-25.576 28.116v.001zm-27.65-19.1l1.935-.612c.554 1.986 1.245 3.973 2.212 5.806l-1.658 1.07c-1.106-1.986-1.797-4.125-2.489-6.264zM27.236 46.35V21.748c1.796-.457 4.008-.916 6.774-1.07V45.28c-2.213.154-4.563.46-6.774 1.07zm11.613 1.681c10.921 0 16.312 2.75 16.59 3.82-.14 1.069-5.53 3.82-16.59 3.82-11.061 0-16.314-2.751-16.59-3.82.276-1.07 5.668-3.82 16.59-3.82zm4.561-2.75V20.678c2.627.153 4.977.612 6.774 1.07v24.448c-2.073-.458-4.423-.764-6.774-.917zm-.967 15.127l-1.383-1.529c.137 0 .137-.153.277-.153 1.106 0 2.211-.151 3.179-.151-.69.457-1.382 1.07-2.073 1.833zm-2.351-.459l1.383 1.529c-1.245 1.528-2.489 3.208-3.456 4.89l-1.659-1.07c1.106-1.988 2.349-3.668 3.732-5.349zm-4.424 6.725l1.66 1.069c-.83 1.833-1.66 3.82-2.213 5.807l-1.797-.612c.692-2.292 1.383-4.279 2.35-6.264zm-2.626 7.64l1.935.61c-.415 1.987-.691 4.126-.691 6.112H32.35c-.138-2.292.139-4.584.692-6.723zm1.105 8.25c0 2.14.276 4.126.692 6.112l-1.936.612a52.56 52.56 0 0 1-.83-6.723h2.074zm24.056-30.713v-1.68c.692 0 1.383-.154 2.073-.154v2.14c-.69 0-1.52 0-2.21.153 0-.154.137-.306.137-.46zm12.442-5.501V21.748c1.797-.457 4.01-.916 6.636-1.07v24.603c-2.074.153-4.425.458-6.636 1.069zm11.614 1.681c10.921 0 16.312 2.75 16.59 3.82-.14 1.069-5.531 3.82-16.59 3.82-11.061 0-16.315-2.751-16.59-3.82.275-1.07 5.668-3.82 16.59-3.82zm4.561-2.75V20.679c2.627.153 4.977.612 6.774 1.07v24.448c-2.073-.458-4.423-.764-6.774-.916zm-2.35 22.462l1.659-1.07c.969 1.986 1.798 4.126 2.35 6.265l-1.935.612c-.415-2.141-1.105-4.127-2.075-5.807zm-.69-1.375c-.97-1.835-2.075-3.362-3.458-4.89l1.383-1.529c1.383 1.681 2.626 3.515 3.734 5.349l-1.66 1.07zm-3.18-7.793l.138.152-1.383 1.528c-.692-.61-1.382-1.375-2.074-1.833 1.244.153 2.351.153 3.319.153zM63.042 51.85v.46h-1.521v-2.14h1.382l.139 1.68zm23.64 38.354l1.935.612c-.552 2.14-1.381 4.278-2.349 6.264l-1.659-1.07c.83-1.832 1.52-3.82 2.073-5.806zm.276-1.528c.416-1.986.692-4.125.692-6.111h1.936a27.1 27.1 0 0 1-.83 6.723l-1.798-.612zm.83-7.64c0-2.139-.276-4.125-.69-6.112l1.934-.61c.415 2.138.692 4.43.83 6.722h-2.074zm-3.456-22.461c2.488-.153 4.977-.306 7.189-.765v8.252c-.83 0-1.66.153-2.489.153-1.105-2.598-2.764-5.196-4.7-7.64zm8.57-.918c2.351-.457 4.564-1.222 6.085-2.139h2.211v10.544h-3.87c-1.521 0-2.904 0-4.425.153v-8.558zm9.679-1.986c3.318.153 6.082.459 8.294.916v10.544c-2.764-.458-5.806-.763-8.294-.763V55.67zm-3.732-31.325v23.839c-1.107-.613-2.489-1.223-4.01-1.529V22.208c2.627.612 3.87 1.528 4.01 2.139zm-13.41-3.819v24.6c-1.107 0-2.075-.153-3.18-.153-1.108 0-2.35 0-3.596.153v-24.6c1.107 0 2.35-.153 3.596-.153 1.105.153 2.21.154 3.18.154zm-16.176 1.68v24.449a29.83 29.83 0 0 0-3.456 1.376V24.347c0-.459 1.243-1.376 3.456-2.14zm-6.221 10.697v14.21a25.536 25.536 0 0 0-4.839 0v-14.21h4.839zm-7.604-8.558v23.839c-1.107-.613-2.35-1.223-3.87-1.529V22.208c2.488.612 3.73 1.528 3.87 2.139zm-13.41-3.819v24.6c-1.106 0-2.074-.153-3.18-.153-1.106 0-2.212 0-3.595.153v-24.6c1.107 0 2.35-.153 3.596-.153 1.105.153 2.21.154 3.178.154zm-16.175 1.68v24.449c-1.384.459-2.489.916-3.595 1.376V24.347c.139-.459 1.382-1.376 3.595-2.14zM9.262 55.519h12.996c3.593 2.139 10.505 3.057 15.206 3.208H6.775v-.457c0-1.529 1.105-2.751 2.488-2.751zm0 43.854c-1.383 0-2.489-1.222-2.489-2.75V61.326H35.53c-3.872 5.959-6.084 13.141-6.084 20.475 0 6.418 1.52 12.378 4.285 17.572H9.262zm27.235-1.07l1.659-1.069c.968 1.833 2.073 3.362 3.456 4.89l-1.383 1.529c-1.521-1.529-2.764-3.363-3.732-5.35zm45.207 5.35l-1.383-1.529c1.245-1.528 2.489-3.208 3.457-4.89l1.66 1.07c-1.107 1.986-2.35 3.82-3.734 5.349zm16.866-1.376v-1.987l.968 1.069-.968.918zm4.839-1.069l.968-1.07v1.986l-.968-.916zm.829-5.35l-2.764 3.21-2.904-3.21v-18.03c1.383 0 3.456 0 5.668-.153v18.184zM98.57 74.925V72.02c0-.763-.552-1.528-1.381-1.528-.692 0-1.383.612-1.383 1.528v2.903c-1.383 0-2.765 0-4.148-.152-.415-1.835-.83-3.668-1.52-5.502 2.212-.153 4.562-.304 7.05-.304 11.474 0 18.25 1.833 19.769 2.902-1.381 1.223-7.603 2.904-18.387 3.056zm20.186-16.502h-1.383 1.383z" fill="#000"/></svg>