<svg xmlns="http://www.w3.org/2000/svg" style="isolation:isolate" viewBox="2.422 21.063 502.578 69.873" width="502.578" height="69.873"><g fill-rule="evenodd"><path d="M26.816 63.871q1.856 2.227 5.821 2.227 3.711 0 7.695-1.25 1.309-.41 1.934-.41 1.132 0 1.132.644 0 .938-1.484 2.002-1.484 1.064-3.75 1.904-2.266.84-5.127 1.397-2.861.556-5.439.556-4.571 0-8.047-1.425-3.477-1.426-5.391-4.073-1.914-2.646-1.914-5.781t1.055-5.801q1.054-2.666 2.861-4.814 1.807-2.149 4.219-3.984 2.412-1.836 5.088-3.067 5.722-2.617 10.976-2.617 5.254 0 8.164 2.158 2.911 2.158 2.911 5.283 0 3.399-2.012 5.957-.957 1.25-2.549 1.993-1.592.742-3.584.742-1.328 0-2.266-.371-1.777-.703-1.777-2.012 0-.449 1.025-2.539 1.026-2.09 2.061-4.307 1.035-2.217 1.035-3.047 0-.83-.703-1.142-.703-.313-2.002-.313t-2.939.987q-1.641.986-3.164 2.695-1.524 1.709-2.793 3.799-1.27 2.09-2.032 4.521-.761 2.432-.761 4.365 0 1.934.439 3.301.439 1.367 1.318 2.422zM54.57 50.063l8.828-.215q.508 0 .762.302.254.303.254.899 0 .596-1.084 3.086-1.084 2.49-2.178 5.293-1.093 2.802-1.093 4.092 0 2.421 2.578 2.421 1.23 0 2.695-.312.469-1.66 1.563-4.395 2.773-6.855 3.339-10.429.098-.723 1.036-.723 2.832 0 5.957-.117t3.603-.117q.479 0 .742.263.264.264.264.498 0 .938-1.211 3.965-1.211 3.028-2.422 6.26-1.211 3.232-1.211 4.717 0 1.484 1.319 1.484 1.318 0 3.652-.713t3.262-1.22q.927-.508 1.201-.508.742 0 .742.703t-1.045 1.338q-1.045.635-2.519 1.289-1.475.654-3.545 1.377-4.766 1.64-9.707 1.64-4.942 0-5.567-2.656-1.894.781-3.105 1.221-1.211.439-3.36.937-2.148.498-3.945.498-5.742 0-5.742-4.687 0-1.621.625-3.936.625-2.314 1.387-4.189 2.011-4.981 2.011-6.182 0-1.201.352-1.543.351-.341 1.562-.341zm42.989 20.859q-.489.019-1.446.019-4.492 0-8.467-.839-3.974-.84-4.697-1.954-.234-.351-.234-.878 0-.528 1.25-1.69t1.719-1.162q.468 0 .966.342.498.342 1.104.83.605.488 1.348.976 1.777 1.172 4.277 1.172.996 0 1.611-.508.615-.507.615-1.279 0-.771-.517-1.338-.518-.566-1.348-.986-.83-.42-1.826-.84-.996-.42-2.002-.918-1.006-.498-1.846-1.084-1.855-1.308-1.855-3.252 0-1.943 1.182-3.369 1.181-1.426 2.978-2.285 1.797-.859 4.063-1.445 3.984-.996 7.529-.996t6.601.361q3.057.361 4.209 1.064.313.176.313.928t-.527 2.148q-.528 1.397-1.338 2.579-.811 1.181-1.455 1.181-.254 0-.43-.215-1.856-2.226-3.604-3.427-1.748-1.202-3.798-1.202-1.563 0-2.237.635-.674.635-.674 1.319 0 .683.752 1.308t1.875 1.133q1.123.508 2.442 1.182 1.318.673 2.441 1.367 1.123.693 1.875 1.738t.752 2.627q0 1.582-1.152 3.086 4.844-.977 7.578-2.402.469-.254.801-.254.742 0 .742.742 0 .625-.762 1.143-.762.517-2.519 1.25-1.758.732-4.18 1.474-5.645 1.719-12.109 1.719zm35.195-20.645l5.137-.664q1.445 0 1.445 1.133t-1.367 1.416q-1.367.283-6.172.752-.664 1.738-1.992 4.824-2.715 6.328-2.715 7.598 0 1.387 1.719 1.387 5.546 0 9.961-1.856.644-.273 1.015-.273.723 0 .723.644 0 .645-.938 1.27-2.871 1.894-8.652 3.164-5.781 1.269-10.664 1.269-2.774 0-4.238-.869-1.465-.869-1.465-2.392 0-1.543 2.031-5.762 2.285-4.727 3.281-8.301-1.211.059-1.679.059-1.153 0-1.153-.938 0-.683.371-.918.371-.234.772-.332.4-.097.683-.127.284-.029.791-.068.508-.039.743-.059.254-1.484.254-2.793l-.02-.742q0-.879 2.227-1.191.742-.098 4.668-.977 3.925-.879 4.804-.879 1.406 0 1.406.977 0 1.68-.976 4.648zm8.867 18.575q-3.672-2.207-3.672-6.7 0-2.343.967-4.404.967-2.06 2.656-3.564 1.69-1.504 3.936-2.579 4.492-2.167 10.293-2.167 11.406 0 12.324 7.226 1.367.449 2.822.449t2.432-.215q.976-.214 1.846-.644.869-.43 1.24-.43.742 0 .742.723t-1.152 1.504q-2.168 1.484-5.743 1.484-1.347 0-2.187-.137-.625 4.922-5.078 8.184-2.129 1.563-5.225 2.461-3.095.898-6.406.898-3.311 0-5.674-.517-2.363-.518-4.121-1.572zm7.09-4.981q0 3.613 2.637 3.613 1.679 0 3.134-1.836 1.455-1.835 2.266-4.55.811-2.715.811-5.537 0-2.823-1.973-2.823-1.719 0-3.33 1.621t-2.578 4.209q-.967 2.588-.967 5.303zm28.828-13.808l9.258-.215q.508 0 .762.302.253.303.253.743 0 .439-.214 1.416 5.214-2.871 9.082-2.871 1.679 0 3.115.839 1.435.84 1.865 2.481 6.367-3.32 10.547-3.32 1.836 0 3.242 1.035 1.504 1.132 1.504 3.193t-.713 4.336q-.713 2.275-1.426 4.248-.712 1.973-.712 2.783 0 .811.41 1.221.41.41 1.093.41 2.52 0 6.25-1.758.704-.312 1.075-.312.879 0 .879.703 0 .625-.752 1.182-.752.556-2.178 1.22-1.426.664-3.525 1.426-2.1.762-4.932 1.289-2.832.527-5.049.527-2.217 0-3.311-.742-1.093-.742-1.093-1.914t.752-3.515q.752-2.344 1.513-4.639.762-2.295.762-3.34t-.508-1.504q-.508-.459-1.513-.459-1.006 0-2.217.313-.313 3.339-2.598 10.175-.957 2.872-1.074 3.594-.117.723-.156.83-.039.108-.137.283-.176.313-.742.313-2.813 0-5.557.107-2.744.108-3.535.108-.791 0-.791-.918t.605-2.735q.606-1.816 1.348-3.613 1.934-4.765 1.934-7.109 0-1.738-2.266-1.738-.957 0-1.816.312-.762 2.598-2.627 8.223l-2.1 6.328q-.312 1.035-1.113 1.035l-10.039.215q-.215 0-.479-.264-.263-.264-.263-.625t.83-2.558q.83-2.198 1.826-4.727.996-2.529 1.826-5.566.83-3.038.83-5.03l-.019-.742q0-.976 1.894-.976z"/><path d="M248.797 73.114l.513-3.467q0-3.588-7.666-3.588-1.319 0-1.832.61-.512.61-.512 2.075 0 1.465.439 4.065.44 2.6.44 3.98 0 1.379-1.099 1.379t-1.099-1.453q0-1.452.342-4.382.342-2.93.342-3.979 0-2.491-.903-2.491-.586 0-.586 1.392l.586 4.053q0 1.44-1.038 1.44-1.037 0-1.037-1.465l.561-4.492-.024-4.053V36.542q0-1.514-.953-2.441l.489-.513q1.001.976 2.441.976h20.166q14.6 0 18.115 9.498.977 2.685.977 5.725 0 3.039-.378 5.224-.379 2.185-.965 3.833-.586 1.648-1.648 2.918-1.062 1.269-2.124 2.136-1.062.867-2.698 1.477-1.635.61-3.027.94-1.391.33-3.491.5-3.296.269-7.739.269h-3.54q-2.051 0-2.051 2.93l.39 3.125q0 .927-.634.927-.757 0-.757-.952zm14.001-16.809q.745-.964 1.16-2.514.415-1.551.415-3.736 0-2.185-.732-3.65-.733-1.465-1.953-2.148-1.221-.684-2.71-1.013-1.49-.33-3.125-.367-1.636-.036-3.052-.061-3.467-.048-4.444-1.025l-.488.488q.928.904.928 2.442v5.615q0 5.615.049 8.398h5.542q4.175 0 5.92-.732 1.746-.732 2.49-1.697zm-12.439 25.464q0 1.111-.817 1.111-.818 0-.818-.916 0-.915.109-1.599.11-.683.379-1.745.268-1.062.317-1.331.074.317.269 1.062.195.745.293 1.16.268 1.147.268 2.258zm72.852-6.677l.537-5.054q0-3.076-2.502-4.7-2.503-1.623-5.262-1.44-2.758.183-3.857 1.868-.562.805-.562 1.904l-.122 6.543q0 1.343.415 3.992t.415 3.991q0 2.368-1.342 2.368-1.343 0-1.343-2.294 0-1.514.439-4.346.44-2.832.501-4.297.061-1.465.061-6.25 0-1.27-.781-2.93-.782-1.66-2.466-4.565-1.685-2.905-2.759-5.127l-.732-.415q-.586 1.074-2.076 1.074l-2.05.073q-2.1 0-3.15-1.025l-.512.488q.073.904.073 3.858l-.025 5.981q0 2.686.098 3.955l.464 3.589q0 1.001-.684 1.001-.683 0-.683-.928l.39-3.027q0-1.099-.647-1.746t-1.684-.647q-1.038 0-1.831.916-.794.915-.794 2.38 0 1.465.537 3.968.537 2.502.537 3.601 0 2.295-1.635 2.295-1.636 0-1.636-2.247 0-1.049.476-3.662.476-2.612.476-4.15 0-1.538-.708-2.527-.708-.989-1.611-.989-.904 0-1.538.623-.635.622-.635 1.55l.659 5.786q0 1.49-1.099 1.49-1.098 0-1.098-1.514 0-.879.464-3.064t.439-3.406q-.024-1.221-.024-31.592 0-1.513-.928-2.417l.488-.488q.952.928 2.417.928h21.875q5.127 0 6.897.305 1.77.305 3.101.647 1.33.342 2.246.842.915.501 1.855 1.245.94.745 1.502 1.697 1.294 2.173 1.294 4.614 0 2.442-.379 3.992-.378 1.55-1.257 2.918-1.904 2.954-6.689 2.954l-.196.561q1.538.611 2.051 1.685 2.149 4.687 3.174 5.945 1.025 1.257 1.904 2.014.879.757 2.515 1.538 1.636.781 1.977 1.013.342.232.342.378 0 2.442.659 6.275.66 3.833.66 4.931 0 1.099-.086 1.587-.085.489-.378.965t-.855.476q-.561 0-.842-.806-.281-.805-.281-1.977 0-1.172.318-4.187.317-3.016.317-4.554 0-3.051-1.978-3.051-.976 0-1.452.341-.476.342-.476 1.404 0 1.062.439 3.382.44 2.319.44 3.503 0 1.184-.904 1.184-.903 0-.903-1.196zm-16.26-32.52l-5.762.171q-3.54 0-4.614-1.05l-.512.464q.976.952.976 2.442v1.635q0 1.465-.976 2.442l.512.488q1.05-1.074 4.346-1.074l6.177.22q2.465 0 3.82-.647t1.355-2.381q0-1.098-.756-1.721-.757-.623-1.831-.806-1.075-.183-2.735-.183zm65.82-3.076l.22 12.476q0 6.518-1.611 9.546-1.514 2.88-4.321 4.321-3.199 1.66-8.496 2.148v4.566l.244 2.514q0 .83-.464.83t-.464-1.611l.146-3.979q0-2.637-1.635-2.637-1.27 0-1.27 2.075l.122 2.124q0 .733.305 2.136.306 1.404.306 1.99 0 .586-.245.977-.244.39-.708.39-.463 0-.695-.403-.232-.402-.232-.964 0-.561.329-1.843.33-1.282.33-1.648v-.745q0-.378-.025-.769-.024-.39-.122-.976-.195-1.221-1.172-1.221-1.806 0-1.806 3.564v1.123q0 .904.439 2.637.44 1.734.44 2.49 0 1.88-1.221 1.88-.61 0-.964-.512-.354-.513-.354-1.319 0-.805.403-2.734.402-1.929.402-2.93v-4.858q-6.933-.318-10.4-2.027-6.055-2.929-6.226-11.132-.048-2.271-.048-6.763l.048-11.279q0-1.441-.952-2.417l.513-.489q.903.928 2.417.928h8.642q1.49 0 2.417-.928l.513.489q-.928.952-.928 2.417l.049 12.548q0 3.638.196 4.615.195.976.427 1.794.232.818.561 1.306.33.489.843 1.038.512.549 1.172.842 1.538.684 3.015.684t2.295-.135q.817-.134 1.44-.439t1.123-.659q.501-.354.855-.903.354-.55.622-1.05.269-.501.427-1.258.159-.756.257-1.33.097-.574.146-1.453.073-1.343.073-3.052l.049-12.548q0-1.49-.903-2.417l.464-.489q.928.928 2.441.928h8.643q1.538 0 2.441-.928l.488.489q-1.001 1.025-1.001 4.98zm-13.623 41.138q0 1.147-.805 1.147-.806 0-.806-1.196 0-1.172.354-1.99.354-.818.427-.818.074 0 .269.44.561 1.269.561 2.417zm59.644-8.814l.342-2.71-.049-4.004v-18.92q0-1.514 1.074-2.955h-1.343q-.708 3.492-4.394 12.403-3.491 8.447-3.491 10.742l.048 5.371q0 .879.403 2.625.403 1.745.403 2.649 0 1.391-1.074 1.391t-1.074-1.416q0-.928.439-2.746.44-1.819.44-2.747 0-2.93-1.453-4.358-1.453-1.428-3.223-1.428-1.77 0-2.917.757-1.148.756-1.148 1.88l.293 2.661q0 .903-.659.903t-.659-.977l.439-4.565q0-2.344-3.515-10.669-3.662-8.716-4.346-12.451h-1.343q1.026 1.367 1.026 2.93v24.121l.488 4.101q0 1.294-.879 1.294t-.879-1.245l.537-4.004q0-.928-.366-1.343-.806-.903-5.493-.903-4.688 0-4.688.049l.123 3.223q0 .561-.562.561t-.562-.513l.147-3.393V38.129q0-2.881-1.758-4.81l.513-.512q2.002 1.757 4.809 1.757h12.476q3.198 0 4.59-1.855l.635.464q-1.246 1.806-1.246 3.332 0 1.526.782 3.37.781 1.843 1.709 3.503 2.514 4.492 2.514 7.349h.342q0-2.955 2.49-7.349 2.466-4.346 2.466-6.384 0-2.039-1.22-3.821l.634-.464q1.392 1.855 4.59 1.855h12.5q2.832 0 4.81-1.757l.488.512q-1.733 1.953-1.733 4.81v26.977q0 1.123-.049 2.442l-.489.488q-.488-.952-1.44-.952h-8.227q-.538 0-.977.659-.44.659-.44 1.221l.416 3.027q0 .879-.635.879t-.635-1.05zm35.376 2.393l.244-2.466v-4.565q-6.567-.342-9.814-1.795-3.247-1.452-4.785-3.65-.928-1.294-1.429-2.893-.5-1.599-1.648-2.405l.367-.512q1.098.732 2.38.732 1.282 0 3.284-.097 2.002-.098 4.516-.232 2.515-.135 3.589-.184 1.074-.048 1.587-.305.513-.256.732-.94l1.099.367q-.073.195-.073.512 0 .806 1.343 1.831 1.342 1.026 4.858 1.026 2.368 0 3.369-.806.44-.366.44-.879 0-1.196-1.319-1.587-1.318-.39-3.186-.671-1.868-.281-3.735-.452-1.868-.171-4.041-.488-2.173-.317-4.101-.696-1.929-.378-3.748-1.111-1.819-.732-3.113-1.721-1.294-.989-2.087-2.539-.793-1.55-.793-3.528 0-1.977.622-3.613.623-1.636 1.697-2.808t2.6-2.075q1.526-.903 3.198-1.465 1.673-.561 3.65-.903 3.442-.635 6.494-.635 3.052 0 4.651.086 1.599.085 3.76.317 2.161.232 3.906.757 1.746.525 3.455 1.33 3.564 1.661 5.005 5.152.586 1.245 1.611 2.319l-.317.562q-1.026-.708-2.369-.708h-.317q-1.953.073-5.579.28-3.625.208-4.663.257-1.037.049-1.489.293-.452.244-.647.927l-1.074-.293q.073-.219.073-.463 0-1.026-1.66-1.77-1.66-.745-3.76-.745-4.101 0-4.101 1.611 0 1.441 6.152 2.1 1.44.171 3.271.342 6.373.659 9.766 1.733 7.129 2.246 7.129 8.569 0 2.588-1.074 4.651-1.074 2.063-2.796 3.357-1.721 1.294-4.065 2.149-4.223 1.538-9.643 1.538-1.465 0-1.734-.025-1.318 0-1.318 2.027v.586q0 .659.33 1.941.329 1.281.329 1.916 0 1.294-.903 1.294-.464 0-.72-.391-.257-.39-.257-.976t.306-1.99q.305-1.404.305-2.039 0-.634-.012-.891-.013-.256-.074-.634-.061-.379-.207-.55-.342-.439-1.172-.439-1.514 0-1.514 2.637l.147 4.003q0 1.612-.464 1.612t-.464-.879z" fill="#FFF"/></g></svg>