<svg xmlns="http://www.w3.org/2000/svg" style="isolation:isolate" viewBox="639.6 344.733 80 80" width="80" height="80"><path d="M719.508 382.968c-.83-1.732-4.885-2.547-8.572-2.955v-15.382l1.383 3.158c.184.408.461.612.829.612.093 0 .277 0 .369-.102.461-.204.645-.815.461-1.325l-3.042-7.232c0-.102-.092-.102-.092-.204l-2.12-4.991c4.424-1.427 10.876-4.483 10.139-7.64-.369-1.427-1.936-2.14-4.885-2.14-2.396 0-5.438.51-8.664 1.426-5.99 1.732-12.073 5.094-11.336 8.048.369 1.63 2.396 2.139 4.793 2.139 2.58 0 5.806-.611 8.11-1.222l2.212 5.195v19.559c-.645 0-1.29-.102-1.843-.102 0-.102.092-.306.092-.51v-18.743l-.092-.102c-.738-3.158-8.203-4.075-12.811-4.075-4.793 0-12.811.917-12.811 4.584v3.769h-3.226v-3.769c0-3.565-8.111-4.584-12.811-4.584-6.175 0-12.811 1.426-12.811 4.584V379.3c0 .102 0 .306.092.408h-3.41v-19.355l2.212-5.195c2.304.611 5.438 1.222 8.11 1.222 2.489 0 4.424-.509 4.793-2.139.737-3.056-5.346-6.316-11.336-8.048-5.623-1.629-10.507-1.935-12.443-.713a2.311 2.311 0 0 0-1.014 1.427c-.368 1.426.738 2.954 3.226 4.584 1.843 1.12 4.24 2.241 6.913 3.157l-2.12 4.992c0 .102-.092.102-.092.204l-3.134 7.13c-.184.51 0 1.121.461 1.325.092.102.276.102.368.102.369 0 .646-.204.83-.612l1.382-3.158v15.077h-1.751c-1.935 0-3.502 1.732-3.502 3.871v25.569c0 1.426.737 2.648 1.751 3.361l-4.24 4.686a1.059 1.059 0 0 0 0 1.426c.185.204.369.306.646.306.276 0 .46-.102.645-.306l5.069-5.602h1.29v4.889c0 .51.369 1.019.922 1.019s.922-.408.922-1.019v-4.889h1.29l5.069 5.602c.184.204.369.306.645.306.277 0 .461-.102.645-.306a1.057 1.057 0 0 0 0-1.426l-3.778-4.176h10.046a24.267 24.267 0 0 0 4.424 4.991l-4.517 4.992a1.059 1.059 0 0 0 0 1.426c.185.203.369.305.646.305.276 0 .46-.102.645-.305l4.792-5.297c3.226 2.139 6.913 3.361 10.876 3.361 3.963 0 7.742-1.222 10.876-3.361l4.792 5.297c.185.203.369.305.645.305.277 0 .461-.102.646-.305a1.059 1.059 0 0 0 0-1.426l-4.517-4.992c5.162-4.278 8.572-11.002 8.572-18.642 0-.917-.092-1.833-.185-2.75.83 0 1.567.102 2.397.102v12.02l-7.65 8.455a1.057 1.057 0 0 0 0 1.426c.184.204.369.306.645.306.277 0 .461-.102.645-.306l6.36-7.029v3.362l-2.028 2.241a1.057 1.057 0 0 0 0 1.426c.184.204.369.306.645.306.277 0 .461-.102.645-.306l.738-.815v.102c0 .51.368 1.019.921 1.019.461 0 .922-.408.922-1.019v-2.139l1.936-2.139 1.935 2.139v2.139c0 .51.369 1.019.922 1.019s.921-.408.921-1.019v-.102l.738.815c.184.204.368.306.645.306.276 0 .461-.102.645-.306a1.057 1.057 0 0 0 0-1.426l-2.028-2.343v-3.361l6.36 7.028c.184.204.369.306.645.306.277 0 .461-.102.645-.306a1.057 1.057 0 0 0 0-1.426l-7.65-8.455v-12.326c4.148-.407 8.664-1.426 8.664-3.667v-9.677h-.092zm-23.687-29.236c0-.713 2.95-3.464 10.046-5.603 7.097-2.139 10.968-1.324 11.245-.713 0 .713-2.765 3.26-9.125 5.297l-1.106-2.649a.882.882 0 0 0-1.198-.509c-.461.204-.645.815-.461 1.324l.922 2.241c-6.452 1.936-10.046 1.223-10.323.612zm-54.47-6.316c.092-.306 1.198-.713 3.134-.713 1.843 0 4.608.305 8.11 1.426 7.097 2.139 10.139 4.89 10.046 5.603-.276.611-3.87 1.324-10.322-.408l.922-2.241c.184-.509 0-1.12-.461-1.324a.882.882 0 0 0-1.198.509l-1.106 2.547c-6.36-2.139-9.125-4.686-9.125-5.399zm76.498 43.192a14.038 14.038 0 0 0-3.41-1.019v-7.029c2.027.408 3.133.917 3.41 1.223v6.825zm-26.913 26.18c-.092 0-.276.102-.368.203-.092.102-.277.204-.369.306l-.645-1.222c1.106-.713 2.028-1.528 2.949-2.547l.922 1.019c-.737.815-1.567 1.629-2.489 2.241zm-23.871-2.241l.922-1.019c.922.917 1.936 1.834 2.949 2.547l-.645 1.222a12.345 12.345 0 0 1-3.226-2.75zm4.609 2.037c1.106.611 2.304 1.222 3.502 1.63l-.369 1.426c-1.29-.408-2.58-1.019-3.778-1.732l.645-1.324zm4.332 1.834c1.198.305 2.488.509 3.686.509v1.426c-1.382 0-2.765-.204-4.055-.611l.369-1.324zm4.7.611c1.29 0 2.488-.204 3.687-.51l.368 1.427c-1.29.305-2.673.509-4.055.611v-1.528zm4.608-.815c1.198-.408 2.397-.917 3.503-1.63l.645 1.222c-1.198.713-2.489 1.325-3.779 1.732l-.369-1.324zm-5.069-.204c-9.309 0-16.958-8.455-16.958-18.744 0-6.519 3.041-12.427 7.926-15.891 3.041-.509 5.53-1.324 6.636-2.648 1.382-.204 2.857-.204 4.332-.102 1.106 1.528 4.147 2.444 7.281 2.852 4.885 3.463 7.834 9.372 7.834 15.789-.092 10.391-7.742 18.744-17.051 18.744zm-18.433-12.733l1.29-.408c.369 1.324.83 2.649 1.475 3.871l-1.106.713c-.737-1.324-1.198-2.75-1.659-4.176zm-4.055-29.644v-16.401a22.957 22.957 0 0 1 4.516-.713v16.401c-1.475.102-3.042.306-4.516.713zm7.742 1.121c7.281 0 10.875 1.833 11.06 2.546-.093.713-3.687 2.547-11.06 2.547-7.374 0-10.876-1.834-11.06-2.547.184-.713 3.779-2.546 11.06-2.546zm3.041-1.834v-16.401a24.18 24.18 0 0 1 4.516.713v16.299c-1.382-.305-2.949-.509-4.516-.611zm-.645 10.085l-.922-1.019c.092 0 .092-.102.185-.102.737 0 1.474-.101 2.119-.101-.46.305-.921.713-1.382 1.222zm-1.567-.306l.922 1.019c-.83 1.019-1.659 2.139-2.304 3.26l-1.106-.713c.737-1.325 1.566-2.445 2.488-3.566zm-2.949 4.483l1.106.713c-.553 1.222-1.106 2.546-1.475 3.871l-1.198-.408c.461-1.528.922-2.852 1.567-4.176zm-1.751 5.093l1.29.407c-.277 1.325-.461 2.751-.461 4.075h-1.29c-.092-1.528.092-3.056.461-4.482zm.737 5.501c0 1.426.184 2.75.461 4.074l-1.291.408a35.051 35.051 0 0 1-.553-4.482h1.383zm16.037-20.476v-1.12c.461 0 .922-.102 1.382-.102v1.426c-.46 0-1.013 0-1.474.102 0-.102.092-.204.092-.306zm8.295-3.667v-16.401c1.198-.305 2.673-.611 4.424-.713v16.401c-1.383.102-2.95.306-4.424.713zm7.742 1.121c7.281 0 10.875 1.833 11.06 2.546-.093.713-3.687 2.547-11.06 2.547-7.374 0-10.876-1.834-11.06-2.547.184-.713 3.779-2.546 11.06-2.546zm3.041-1.834v-16.401a24.18 24.18 0 0 1 4.516.713v16.299c-1.382-.305-2.949-.509-4.516-.611zm-1.567 14.975l1.106-.713c.646 1.324 1.199 2.75 1.567 4.176l-1.29.408c-.277-1.427-.737-2.751-1.383-3.871zm-.46-.917c-.646-1.223-1.383-2.241-2.305-3.26l.922-1.019c.922 1.121 1.751 2.343 2.489 3.566l-1.106.713zm-2.12-5.195l.092.101-.922 1.019c-.461-.407-.921-.917-1.382-1.222.829.102 1.567.102 2.212.102zm-11.705-4.483v.306h-1.014v-1.426h.921l.093 1.12zm15.76 25.569l1.29.408c-.368 1.426-.921 2.852-1.566 4.176l-1.106-.713a27.167 27.167 0 0 0 1.382-3.871zm.184-1.019c.277-1.324.461-2.75.461-4.074h1.291c0 1.528-.185 3.056-.553 4.482l-1.199-.408zm.553-5.093c0-1.426-.184-2.75-.46-4.075l1.29-.407c.276 1.426.461 2.954.553 4.482h-1.383zm-2.304-14.974c1.659-.102 3.318-.204 4.793-.51v5.501c-.553 0-1.106.102-1.659.102-.737-1.732-1.843-3.464-3.134-5.093zm5.714-.612c1.567-.305 3.042-.815 4.056-1.426h1.474v7.029h-2.58c-1.014 0-1.936 0-2.95.102v-5.705zm6.452-1.324c2.212.102 4.055.306 5.53.611v7.029c-1.843-.305-3.871-.509-5.53-.509v-7.131zm-2.488-20.883v15.892c-.738-.408-1.659-.815-2.673-1.019v-16.299c1.751.408 2.58 1.019 2.673 1.426zm-8.94-2.546v16.4c-.738 0-1.383-.102-2.12-.102-.738 0-1.567 0-2.397.102v-16.4c.738 0 1.567-.102 2.397-.102.737.102 1.474.102 2.12.102zm-10.784 1.12v16.299a19.91 19.91 0 0 0-2.304.917v-15.79c0-.305.829-.917 2.304-1.426zm-4.147 7.131v9.474a17.036 17.036 0 0 0-3.226 0v-9.474h3.226zm-5.069-5.705v15.892c-.738-.408-1.567-.815-2.581-1.019v-16.299c1.659.408 2.488 1.019 2.581 1.426zm-8.941-2.546v16.4c-.737 0-1.382-.102-2.119-.102-.738 0-1.475 0-2.397.102v-16.4c.738 0 1.567-.102 2.397-.102.737.102 1.474.102 2.119.102zm-10.783 1.12v16.299c-.922.306-1.659.611-2.396.917v-15.79c.092-.305.921-.917 2.396-1.426zm-11.06 22.207h8.664c2.396 1.426 7.004 2.038 10.138 2.139h-20.461v-.305c0-1.019.737-1.834 1.659-1.834zm0 29.236c-.922 0-1.659-.815-1.659-1.833v-23.532h19.171c-2.581 3.973-4.056 8.761-4.056 13.65 0 4.279 1.014 8.252 2.857 11.715h-16.313zm18.157-.713l1.106-.713c.645 1.222 1.382 2.241 2.304 3.26l-.922 1.019c-1.014-1.019-1.843-2.242-2.488-3.566zm30.138 3.566l-.922-1.019c.83-1.019 1.659-2.139 2.305-3.26l1.106.713c-.738 1.324-1.567 2.547-2.489 3.566zm11.244-.917v-1.325l.645.713-.645.612zm3.226-.713l.645-.713v1.324l-.645-.611zm.553-3.566l-1.843 2.139-1.936-2.139v-12.02c.922 0 2.304 0 3.779-.102v12.122zm-3.779-13.956v-1.935c0-.509-.368-1.019-.921-1.019-.461 0-.922.408-.922 1.019v1.935c-.922 0-1.843 0-2.765-.101-.277-1.223-.553-2.445-1.014-3.668 1.475-.102 3.042-.203 4.701-.203 7.649 0 12.166 1.222 13.179 1.935-.921.815-5.069 1.936-12.258 2.037zm13.457-11.001h-.922.922z"/></svg>