<svg xmlns="http://www.w3.org/2000/svg" style="isolation:isolate" viewBox="304 173 80 50" width="80" height="50"><path d="M363.692 204.146c.176 0 .44-.12.528-.358L381.802 173h-48l17.846 31.146h12.044z"/><path d="M366.066 205.697c-.528.955-1.407 1.551-2.374 1.551h-10.637L362.11 223H384v-48.568l-17.934 31.265zm-37.802-32.578H304l2.198 3.819h24.264l-2.198-3.819zm6.593 11.456h-24.264l2.198 3.819h24.264l-2.198-3.819zm6.506 11.575h-24.176l2.198 3.819h24.175l-2.197-3.819zm6.593 11.576H323.78l2.198 3.818h24.176l-2.198-3.818zm-17.582 11.455l2.197 3.819h24.176l-2.198-3.819h-24.175z"/></svg>