<svg xmlns="http://www.w3.org/2000/svg" style="isolation:isolate" viewBox="446 190 80 50" width="80" height="50"><path d="M512.182 195.679h-4.97c-.97 0-1.818.864-1.818 1.852v16.543c0 .988-.849 1.852-1.818 1.852-.97 0-1.818-.864-1.818-1.852v-22.222c0-.988-.849-1.852-1.819-1.852h-48.484c-.97 0-1.819.864-1.819 1.852 0 .988.849 1.852 1.819 1.852h13.939c1.333 0 2.424 1.111 2.424 2.469 0 1.358-1.091 2.469-2.424 2.469h-3.03c-.97 0-1.819.864-1.819 1.852 0 .987.849 1.852 1.819 1.852h3.03c1.333 0 2.424 1.111 2.424 2.469 0 1.358-1.091 2.469-2.424 2.469h-17.576c-.97 0-1.818.864-1.818 1.852 0 .987.848 1.852 1.818 1.852h17.576c1.333 0 2.424 1.111 2.424 2.469 0 1.358-1.091 2.469-2.424 2.469h-10.303c-.97 0-1.818.864-1.818 1.852 0 .987.848 1.852 1.818 1.852h69.091c.97 0 1.818-.865 1.818-1.852v-5.556c0-9.382-6.545-16.543-13.818-16.543zm8.242 16.667h-5.939c-.97 0-1.818-.865-1.818-1.852v-8.889c0-1.235 1.212-2.099 2.424-1.728 4 1.358 6.545 5.802 7.151 10.246.122 1.112-.727 2.223-1.818 2.223zm-41.697 16.543c-3.03 0-5.454 2.469-5.454 5.555 0 3.087 2.424 5.556 5.454 5.556 3.031 0 5.455-2.469 5.455-5.556 0-3.086-2.424-5.555-5.455-5.555zm0 8.271c-1.454 0-2.666-1.234-2.666-2.716 0-1.481 1.212-2.716 2.666-2.716 1.455 0 2.667 1.235 2.667 2.716 0 1.482-1.212 2.716-2.667 2.716z"/><path d="M524.303 223.457h-54.788c-.97 0-1.697.741-1.697 1.728v7.655c0 .987.727 1.728 1.697 1.728h.364a1.71 1.71 0 0 0 1.697-1.482c.727-3.333 3.636-5.926 7.151-5.926 3.515 0 6.425 2.593 7.152 5.926a1.709 1.709 0 0 0 1.697 1.482h18.666c.849 0 1.576-.617 1.697-1.482.728-3.333 3.637-5.926 7.152-5.926s6.424 2.593 7.151 5.926a1.71 1.71 0 0 0 1.697 1.482h.364c.97 0 1.697-.741 1.697-1.728v-7.655c0-.987-.727-1.728-1.697-1.728z"/><path d="M515.091 228.889c-3.03 0-5.455 2.469-5.455 5.555 0 3.087 2.425 5.556 5.455 5.556 3.03 0 5.454-2.469 5.454-5.556 0-3.086-2.424-5.555-5.454-5.555zm0 8.271c-1.455 0-2.667-1.234-2.667-2.716 0-1.481 1.212-2.716 2.667-2.716 1.454 0 2.667 1.235 2.667 2.716 0 1.482-1.213 2.716-2.667 2.716z"/></svg>