<svg width="120" height="120" fill="none" xmlns="http://www.w3.org/2000/svg"><path d="M0 0h120v120H0z"/><path d="M99.273 13.63h-7.455c-1.455 0-2.727 2.073-2.727 4.444v39.704c0 2.37-1.273 4.444-2.727 4.444-1.455 0-2.727-2.073-2.727-4.444V4.445C83.637 2.074 82.364 0 80.909 0H8.181C6.727 0 5.454 2.074 5.454 4.445c0 2.371 1.273 4.445 2.728 4.445h20.909c2 0 3.636 2.666 3.636 5.925 0 3.26-1.636 5.926-3.636 5.926h-4.545c-1.455 0-2.729 2.073-2.729 4.445 0 2.368 1.274 4.444 2.729 4.444h4.545c2 0 3.636 2.667 3.636 5.926 0 3.26-1.636 5.926-3.636 5.926H2.727C1.272 41.482 0 43.555 0 45.926c0 2.37 1.272 4.445 2.727 4.445h26.364c2 0 3.636 2.667 3.636 5.926 0 3.259-1.636 5.925-3.636 5.925H13.636c-1.454 0-2.726 2.074-2.726 4.445 0 2.369 1.271 4.445 2.726 4.445h103.637c1.455 0 2.727-2.076 2.727-4.445V53.333c0-22.517-9.818-39.703-20.727-39.703zm12.363 40h-8.908c-1.455 0-2.728-2.076-2.728-4.444V27.852c0-2.964 1.819-5.038 3.637-4.147 6 3.259 9.817 13.925 10.726 24.59.183 2.669-1.091 5.335-2.727 5.335zM49.091 93.334c-4.546 0-8.181 5.925-8.181 13.332 0 7.408 3.636 13.334 8.18 13.334 4.547 0 8.183-5.926 8.183-13.334 0-7.407-3.636-13.332-8.183-13.332zm0 19.85c-2.181 0-4-2.962-4-6.518 0-3.555 1.819-6.519 4-6.519 2.182 0 4 2.964 4 6.519 0 3.556-1.818 6.518-4 6.518z" fill="#000"/><path d="M117.454 80.297H35.273c-1.456 0-2.546 1.778-2.546 4.147v18.372c0 2.369 1.09 4.147 2.546 4.147h.545c1.273 0 2.364-1.481 2.546-3.557 1.09-7.999 5.454-14.222 10.727-14.222 5.272 0 9.637 6.223 10.727 14.222.182 2.076 1.273 3.557 2.546 3.557h27.999c1.273 0 2.364-1.481 2.546-3.557 1.091-7.999 5.455-14.222 10.728-14.222 5.272 0 9.635 6.223 10.726 14.222.183 2.076 1.274 3.557 2.546 3.557h.545c1.455 0 2.546-1.778 2.546-4.147V84.444c0-2.369-1.091-4.147-2.546-4.147z" fill="#000"/><path d="M103.637 93.334c-4.546 0-8.183 5.925-8.183 13.332 0 7.408 3.638 13.334 8.183 13.334s8.18-5.926 8.18-13.334c0-7.407-3.635-13.332-8.18-13.332zm0 19.85c-2.183 0-4.001-2.962-4.001-6.518 0-3.555 1.818-6.519 4.001-6.519 2.181 0 4 2.964 4 6.519 0 3.556-1.819 6.518-4 6.518z" fill="#000"/></svg>