<?xml version="1.0" standalone="no"?><!-- Generator: Gravit.io --><svg xmlns="http://www.w3.org/2000/svg" xmlns:xlink="http://www.w3.org/1999/xlink" style="isolation:isolate" viewBox="639.6 344.733 80 80" width="80" height="80"><g><path d=" M 719.508 382.968 C 718.678 381.236 714.623 380.421 710.936 380.013 L 710.936 364.631 L 712.319 367.789 C 712.503 368.197 712.78 368.401 713.148 368.401 C 713.241 368.401 713.425 368.401 713.517 368.299 C 713.978 368.095 714.162 367.484 713.978 366.974 L 710.936 359.742 C 710.936 359.64 710.844 359.64 710.844 359.538 L 708.724 354.547 C 713.148 353.12 719.6 350.064 718.863 346.907 C 718.494 345.48 716.927 344.767 713.978 344.767 C 713.978 344.767 713.978 344.767 713.978 344.767 C 711.582 344.767 708.54 345.277 705.314 346.193 C 699.324 347.925 693.241 351.287 693.978 354.241 C 693.978 354.241 693.978 354.241 693.978 354.241 C 694.347 355.871 696.374 356.38 698.771 356.38 C 701.351 356.38 704.577 355.769 706.881 355.158 L 709.093 360.353 L 709.093 379.912 C 708.448 379.912 707.803 379.81 707.25 379.81 C 707.25 379.708 707.342 379.504 707.342 379.3 C 707.342 379.3 707.342 379.3 707.342 379.3 L 707.342 379.3 L 707.342 360.557 L 707.25 360.455 C 706.512 357.297 699.047 356.38 694.439 356.38 C 689.646 356.38 681.628 357.297 681.628 360.964 L 681.628 364.733 L 678.402 364.733 L 678.402 360.964 L 678.402 360.964 C 678.402 357.399 670.291 356.38 665.591 356.38 C 659.416 356.38 652.78 357.806 652.78 360.964 L 652.78 379.3 L 652.78 379.3 C 652.78 379.3 652.78 379.3 652.78 379.3 C 652.78 379.402 652.78 379.606 652.872 379.708 L 649.462 379.708 L 649.462 360.353 L 651.674 355.158 C 653.978 355.769 657.112 356.38 659.784 356.38 C 662.273 356.38 664.208 355.871 664.577 354.241 C 664.577 354.241 664.577 354.241 664.577 354.241 C 665.314 351.185 659.231 347.925 653.241 346.193 C 647.618 344.564 642.734 344.258 640.798 345.48 C 640.153 345.888 639.876 346.499 639.784 346.907 C 639.416 348.333 640.522 349.861 643.01 351.491 C 644.853 352.611 647.25 353.732 649.923 354.648 L 647.803 359.64 C 647.803 359.742 647.711 359.742 647.711 359.844 L 644.577 366.974 C 644.393 367.484 644.577 368.095 645.038 368.299 C 645.13 368.401 645.314 368.401 645.406 368.401 C 645.775 368.401 646.052 368.197 646.236 367.789 L 647.618 364.631 L 647.618 379.708 L 645.867 379.708 C 643.932 379.708 642.365 381.44 642.365 383.579 L 642.365 409.148 C 642.365 410.574 643.102 411.796 644.116 412.509 L 639.876 417.195 C 639.508 417.603 639.508 418.214 639.876 418.621 C 640.061 418.825 640.245 418.927 640.522 418.927 C 640.798 418.927 640.982 418.825 641.167 418.621 L 646.236 413.019 L 647.526 413.019 L 647.526 417.908 C 647.526 418.418 647.895 418.927 648.448 418.927 C 649.001 418.927 649.37 418.519 649.37 417.908 L 649.37 413.019 L 650.66 413.019 L 655.729 418.621 C 655.913 418.825 656.098 418.927 656.374 418.927 C 656.651 418.927 656.835 418.825 657.019 418.621 C 657.388 418.214 657.388 417.603 657.019 417.195 L 653.241 413.019 L 663.287 413.019 C 664.577 414.954 666.052 416.584 667.711 418.01 L 663.194 423.002 C 662.826 423.409 662.826 424.02 663.194 424.428 C 663.379 424.631 663.563 424.733 663.84 424.733 C 664.116 424.733 664.3 424.631 664.485 424.428 L 669.277 419.131 C 672.503 421.27 676.19 422.492 680.153 422.492 C 684.116 422.492 687.895 421.27 691.029 419.131 L 695.821 424.428 C 696.006 424.631 696.19 424.733 696.466 424.733 C 696.743 424.733 696.927 424.631 697.112 424.428 C 697.48 424.02 697.48 423.409 697.112 423.002 L 692.595 418.01 C 697.757 413.732 701.167 407.008 701.167 399.368 C 701.167 398.451 701.075 397.535 700.982 396.618 C 701.812 396.618 702.549 396.72 703.379 396.72 L 703.379 408.74 L 695.729 417.195 C 695.36 417.603 695.36 418.214 695.729 418.621 C 695.913 418.825 696.098 418.927 696.374 418.927 C 696.651 418.927 696.835 418.825 697.019 418.621 L 703.379 411.592 L 703.379 414.954 L 701.351 417.195 C 700.982 417.603 700.982 418.214 701.351 418.621 C 701.535 418.825 701.72 418.927 701.996 418.927 C 702.273 418.927 702.457 418.825 702.641 418.621 L 703.379 417.806 L 703.379 417.908 C 703.379 418.418 703.747 418.927 704.3 418.927 C 704.761 418.927 705.222 418.519 705.222 417.908 L 705.222 415.769 L 707.158 413.63 L 709.093 415.769 L 709.093 417.908 C 709.093 418.418 709.462 418.927 710.015 418.927 C 710.568 418.927 710.936 418.519 710.936 417.908 L 710.936 417.806 L 711.674 418.621 C 711.858 418.825 712.042 418.927 712.319 418.927 C 712.595 418.927 712.78 418.825 712.964 418.621 C 713.333 418.214 713.333 417.603 712.964 417.195 L 710.936 414.852 L 710.936 411.491 L 717.296 418.519 C 717.48 418.723 717.665 418.825 717.941 418.825 C 718.218 418.825 718.402 418.723 718.586 418.519 C 718.955 418.112 718.955 417.501 718.586 417.093 L 710.936 408.638 L 710.936 396.312 C 715.084 395.905 719.6 394.886 719.6 392.645 C 719.6 392.645 719.6 392.645 719.6 392.645 L 719.6 392.645 L 719.6 382.968 L 719.508 382.968 Z  M 695.821 353.732 C 695.821 353.019 698.771 350.268 705.867 348.129 C 712.964 345.99 716.835 346.805 717.112 347.416 C 717.112 348.129 714.347 350.676 707.987 352.713 L 706.881 350.064 C 706.697 349.555 706.144 349.351 705.683 349.555 C 705.222 349.759 705.038 350.37 705.222 350.879 L 706.144 353.12 C 699.692 355.056 696.098 354.343 695.821 353.732 Z  M 641.351 347.416 C 641.443 347.11 642.549 346.703 644.485 346.703 C 646.328 346.703 649.093 347.008 652.595 348.129 C 659.692 350.268 662.734 353.019 662.641 353.732 C 662.365 354.343 658.771 355.056 652.319 353.324 L 653.241 351.083 C 653.425 350.574 653.241 349.963 652.78 349.759 C 652.319 349.555 651.766 349.759 651.582 350.268 L 650.476 352.815 C 644.116 350.676 641.351 348.129 641.351 347.416 Z  M 717.849 390.608 C 716.927 390.2 715.729 389.793 714.439 389.589 L 714.439 382.56 C 716.466 382.968 717.572 383.477 717.849 383.783 L 717.849 390.608 Z  M 690.936 416.788 C 690.844 416.788 690.66 416.89 690.568 416.991 C 690.568 416.991 690.568 416.991 690.568 416.991 C 690.476 417.093 690.291 417.195 690.199 417.297 L 689.554 416.075 C 690.66 415.362 691.582 414.547 692.503 413.528 L 693.425 414.547 C 692.688 415.362 691.858 416.176 690.936 416.788 Z  M 667.065 414.547 L 667.987 413.528 C 668.909 414.445 669.923 415.362 670.936 416.075 L 670.291 417.297 C 669.093 416.584 667.987 415.667 667.065 414.547 Z  M 671.674 416.584 C 672.78 417.195 673.978 417.806 675.176 418.214 L 674.807 419.64 C 673.517 419.232 672.227 418.621 671.029 417.908 L 671.674 416.584 Z  M 676.006 418.418 C 677.204 418.723 678.494 418.927 679.692 418.927 L 679.692 420.353 C 678.31 420.353 676.927 420.149 675.637 419.742 L 676.006 418.418 Z  M 680.706 419.029 C 681.996 419.029 683.194 418.825 684.393 418.519 L 684.761 419.946 C 683.471 420.251 682.088 420.455 680.706 420.557 L 680.706 419.029 Z  M 685.314 418.214 C 686.512 417.806 687.711 417.297 688.817 416.584 L 689.462 417.806 C 688.264 418.519 686.973 419.131 685.683 419.538 L 685.314 418.214 Z  M 680.245 418.01 C 670.936 418.01 663.287 409.555 663.287 399.266 C 663.287 392.747 666.328 386.839 671.213 383.375 C 674.254 382.866 676.743 382.051 677.849 380.727 C 679.231 380.523 680.706 380.523 682.181 380.625 C 683.287 382.153 686.328 383.069 689.462 383.477 C 694.347 386.94 697.296 392.849 697.296 399.266 C 697.204 409.657 689.554 418.01 680.245 418.01 Z  M 661.812 405.277 L 663.102 404.869 C 663.471 406.193 663.932 407.518 664.577 408.74 L 663.471 409.453 C 662.734 408.129 662.273 406.703 661.812 405.277 Z  M 657.757 375.633 L 657.757 359.232 C 658.955 358.927 660.429 358.621 662.273 358.519 L 662.273 374.92 C 660.798 375.022 659.231 375.226 657.757 375.633 Z  M 665.499 376.754 C 672.78 376.754 676.374 378.587 676.559 379.3 C 676.466 380.013 672.872 381.847 665.499 381.847 C 658.125 381.847 654.623 380.013 654.439 379.3 C 654.623 378.587 658.218 376.754 665.499 376.754 Z  M 668.54 374.92 L 668.54 358.519 C 670.291 358.621 671.858 358.927 673.056 359.232 L 673.056 375.531 C 671.674 375.226 670.107 375.022 668.54 374.92 Z  M 667.895 385.005 L 666.973 383.986 C 667.065 383.986 667.065 383.884 667.158 383.884 C 667.895 383.884 668.632 383.783 669.277 383.783 C 668.817 384.088 668.356 384.496 667.895 385.005 Z  M 666.328 384.699 L 667.25 385.718 C 666.42 386.737 665.591 387.857 664.946 388.978 L 663.84 388.265 C 664.577 386.94 665.406 385.82 666.328 384.699 Z  M 663.379 389.182 L 664.485 389.895 C 663.932 391.117 663.379 392.441 663.01 393.766 L 661.812 393.358 C 662.273 391.83 662.734 390.506 663.379 389.182 Z  M 661.628 394.275 L 662.918 394.682 C 662.641 396.007 662.457 397.433 662.457 398.757 L 661.167 398.757 C 661.075 397.229 661.259 395.701 661.628 394.275 Z  M 662.365 399.776 C 662.365 401.202 662.549 402.526 662.826 403.85 L 661.535 404.258 C 661.259 402.832 661.075 401.304 660.982 399.776 L 662.365 399.776 Z  M 678.402 379.3 L 678.402 378.18 C 678.863 378.18 679.324 378.078 679.784 378.078 L 679.784 379.504 C 679.324 379.504 678.771 379.504 678.31 379.606 C 678.31 379.504 678.402 379.402 678.402 379.3 C 678.402 379.3 678.402 379.3 678.402 379.3 L 678.402 379.3 Z  M 686.697 375.633 L 686.697 359.232 C 687.895 358.927 689.37 358.621 691.121 358.519 L 691.121 374.92 C 689.738 375.022 688.171 375.226 686.697 375.633 Z  M 694.439 376.754 C 701.72 376.754 705.314 378.587 705.499 379.3 C 705.406 380.013 701.812 381.847 694.439 381.847 C 687.065 381.847 683.563 380.013 683.379 379.3 C 683.563 378.587 687.158 376.754 694.439 376.754 Z  M 697.48 374.92 L 697.48 358.519 C 699.231 358.621 700.798 358.927 701.996 359.232 L 701.996 375.531 C 700.614 375.226 699.047 375.022 697.48 374.92 Z  M 695.913 389.895 L 697.019 389.182 C 697.665 390.506 698.218 391.932 698.586 393.358 L 697.296 393.766 C 697.019 392.339 696.559 391.015 695.913 389.895 Z  M 695.453 388.978 C 694.807 387.755 694.07 386.737 693.148 385.718 L 694.07 384.699 C 694.992 385.82 695.821 387.042 696.559 388.265 L 695.453 388.978 Z  M 693.333 383.783 C 693.333 383.783 693.425 383.884 693.425 383.884 L 692.503 384.903 C 692.042 384.496 691.582 383.986 691.121 383.681 C 691.95 383.783 692.688 383.783 693.333 383.783 Z  M 681.628 379.3 C 681.628 379.3 681.628 379.3 681.628 379.3 C 681.628 379.402 681.628 379.504 681.628 379.606 C 681.259 379.606 680.982 379.606 680.614 379.606 L 680.614 378.18 C 680.89 378.18 681.259 378.18 681.535 378.18 L 681.628 379.3 L 681.628 379.3 Z  M 697.388 404.869 L 698.678 405.277 C 698.31 406.703 697.757 408.129 697.112 409.453 L 696.006 408.74 C 696.559 407.518 697.019 406.193 697.388 404.869 Z  M 697.572 403.85 C 697.849 402.526 698.033 401.1 698.033 399.776 L 699.324 399.776 C 699.324 401.304 699.139 402.832 698.771 404.258 L 697.572 403.85 Z  M 698.125 398.757 C 698.125 397.331 697.941 396.007 697.665 394.682 L 698.955 394.275 C 699.231 395.701 699.416 397.229 699.508 398.757 L 698.125 398.757 Z  M 695.821 383.783 C 697.48 383.681 699.139 383.579 700.614 383.273 L 700.614 388.774 C 700.061 388.774 699.508 388.876 698.955 388.876 C 698.218 387.144 697.112 385.412 695.821 383.783 Z  M 701.535 383.171 C 703.102 382.866 704.577 382.356 705.591 381.745 C 706.144 381.745 706.605 381.745 707.065 381.745 L 707.065 388.774 C 705.959 388.774 705.038 388.774 704.485 388.774 C 703.471 388.774 702.549 388.774 701.535 388.876 L 701.535 383.171 Z  M 707.987 381.847 C 710.199 381.949 712.042 382.153 713.517 382.458 L 713.517 389.487 C 711.674 389.182 709.646 388.978 707.987 388.978 L 707.987 381.847 Z  M 705.499 360.964 L 705.499 376.856 C 704.761 376.448 703.84 376.041 702.826 375.837 L 702.826 359.538 C 704.577 359.946 705.406 360.557 705.499 360.964 Z  M 696.559 358.418 L 696.559 374.818 C 695.821 374.818 695.176 374.716 694.439 374.716 C 693.701 374.716 692.872 374.716 692.042 374.818 L 692.042 358.418 C 692.78 358.418 693.609 358.316 694.439 358.316 C 695.176 358.418 695.913 358.418 696.559 358.418 Z  M 685.775 359.538 L 685.775 375.837 C 684.853 376.143 684.116 376.448 683.471 376.754 L 683.471 360.964 C 683.471 360.659 684.3 360.047 685.775 359.538 Z  M 681.628 366.669 L 681.628 376.143 C 680.522 376.041 679.416 376.041 678.402 376.143 L 678.402 366.669 L 681.628 366.669 Z  M 676.559 360.964 L 676.559 376.856 C 675.821 376.448 674.992 376.041 673.978 375.837 L 673.978 359.538 C 675.637 359.946 676.466 360.557 676.559 360.964 Z  M 667.618 358.418 L 667.618 374.818 C 666.881 374.818 666.236 374.716 665.499 374.716 C 664.761 374.716 664.024 374.716 663.102 374.818 L 663.102 358.418 C 663.84 358.418 664.669 358.316 665.499 358.316 C 666.236 358.418 666.973 358.418 667.618 358.418 Z  M 656.835 359.538 L 656.835 375.837 C 655.913 376.143 655.176 376.448 654.439 376.754 L 654.439 360.964 C 654.531 360.659 655.36 360.047 656.835 359.538 Z  M 645.775 381.745 L 654.439 381.745 C 656.835 383.171 661.443 383.783 664.577 383.884 C 664.577 383.884 664.577 383.884 664.577 383.884 L 644.116 383.884 L 644.116 383.579 C 644.116 382.56 644.853 381.745 645.775 381.745 Z  M 645.775 410.981 C 644.853 410.981 644.116 410.166 644.116 409.148 L 644.116 385.616 L 663.287 385.616 C 660.706 389.589 659.231 394.377 659.231 399.266 C 659.231 403.545 660.245 407.518 662.088 410.981 L 645.775 410.981 Z  M 663.932 410.268 L 665.038 409.555 C 665.683 410.777 666.42 411.796 667.342 412.815 L 666.42 413.834 C 665.406 412.815 664.577 411.592 663.932 410.268 Z  M 694.07 413.834 L 693.148 412.815 C 693.978 411.796 694.807 410.676 695.453 409.555 L 696.559 410.268 C 695.821 411.592 694.992 412.815 694.07 413.834 Z  M 705.314 412.917 L 705.314 411.592 L 705.959 412.305 L 705.314 412.917 Z  M 708.54 412.204 L 709.185 411.491 L 709.185 412.815 L 708.54 412.204 Z  M 709.093 408.638 L 707.25 410.777 L 705.314 408.638 L 705.314 396.618 C 706.236 396.618 707.618 396.618 709.093 396.516 L 709.093 408.638 Z  M 705.314 394.682 L 705.314 392.747 C 705.314 392.238 704.946 391.728 704.393 391.728 C 703.932 391.728 703.471 392.136 703.471 392.747 L 703.471 394.682 C 702.549 394.682 701.628 394.682 700.706 394.581 C 700.429 393.358 700.153 392.136 699.692 390.913 C 701.167 390.811 702.734 390.71 704.393 390.71 C 712.042 390.71 716.559 391.932 717.572 392.645 C 716.651 393.46 712.503 394.581 705.314 394.682 Z  M 718.771 383.681 L 717.849 383.681 C 717.849 383.681 717.849 383.681 717.849 383.681 L 718.771 383.681 L 718.771 383.681 Z " fill="rgb(0,0,0)"/></g></svg>