<?xml version="1.0" standalone="no"?><!-- Generator: Gravit.io --><svg xmlns="http://www.w3.org/2000/svg" xmlns:xlink="http://www.w3.org/1999/xlink" style="isolation:isolate" viewBox="304 173 80 50" width="80" height="50"><g><g><path d=" M 363.692 204.146 C 363.868 204.146 364.132 204.026 364.22 203.788 L 381.802 173 L 333.802 173 L 351.648 204.146 L 363.692 204.146 Z " fill="rgb(0,0,0)"/><path d=" M 366.066 205.697 C 365.538 206.652 364.659 207.248 363.692 207.248 L 353.055 207.248 L 362.11 223 L 384 223 L 384 174.432 L 366.066 205.697 Z " fill="rgb(0,0,0)"/><path d=" M 328.264 173.119 L 304 173.119 L 306.198 176.938 L 330.462 176.938 L 328.264 173.119 Z " fill="rgb(0,0,0)"/><path d=" M 334.857 184.575 L 310.593 184.575 L 312.791 188.394 L 337.055 188.394 L 334.857 184.575 Z " fill="rgb(0,0,0)"/><path d=" M 341.363 196.15 L 317.187 196.15 L 319.385 199.969 L 343.56 199.969 L 341.363 196.15 Z " fill="rgb(0,0,0)"/><path d=" M 347.956 207.726 L 323.78 207.726 L 325.978 211.544 L 350.154 211.544 L 347.956 207.726 Z " fill="rgb(0,0,0)"/><path d=" M 330.374 219.181 L 332.571 223 L 356.747 223 L 354.549 219.181 L 330.374 219.181 Z " fill="rgb(0,0,0)"/></g></g></svg>