<?xml version="1.0" standalone="no"?><!-- Generator: Gravit.io --><svg xmlns="http://www.w3.org/2000/svg" xmlns:xlink="http://www.w3.org/1999/xlink" style="isolation:isolate" viewBox="446 190 80 50" width="80" height="50"><g><g><path d=" M 512.182 195.679 L 507.212 195.679 C 506.242 195.679 505.394 196.543 505.394 197.531 L 505.394 214.074 C 505.394 215.062 504.545 215.926 503.576 215.926 L 503.576 215.926 C 502.606 215.926 501.758 215.062 501.758 214.074 L 501.758 191.852 C 501.758 190.864 500.909 190 499.939 190 L 451.455 190 C 450.485 190 449.636 190.864 449.636 191.852 L 449.636 191.852 C 449.636 192.84 450.485 193.704 451.455 193.704 L 465.394 193.704 C 466.727 193.704 467.818 194.815 467.818 196.173 C 467.818 197.531 466.727 198.642 465.394 198.642 L 462.364 198.642 C 461.394 198.642 460.545 199.506 460.545 200.494 L 460.545 200.494 C 460.545 201.481 461.394 202.346 462.364 202.346 L 465.394 202.346 C 466.727 202.346 467.818 203.457 467.818 204.815 C 467.818 206.173 466.727 207.284 465.394 207.284 L 447.818 207.284 C 446.848 207.284 446 208.148 446 209.136 L 446 209.136 C 446 210.123 446.848 210.988 447.818 210.988 L 465.394 210.988 C 466.727 210.988 467.818 212.099 467.818 213.457 C 467.818 214.815 466.727 215.926 465.394 215.926 L 455.091 215.926 C 454.121 215.926 453.273 216.79 453.273 217.778 L 453.273 217.778 C 453.273 218.765 454.121 219.63 455.091 219.63 L 524.182 219.63 C 525.152 219.63 526 218.765 526 217.778 L 526 212.222 C 526 202.84 519.455 195.679 512.182 195.679 Z  M 520.424 212.346 L 514.485 212.346 C 513.515 212.346 512.667 211.481 512.667 210.494 L 512.667 201.605 C 512.667 200.37 513.879 199.506 515.091 199.877 C 519.091 201.235 521.636 205.679 522.242 210.123 C 522.364 211.235 521.515 212.346 520.424 212.346 Z " fill="rgb(0,0,0)"/><path d=" M 478.727 228.889 C 475.697 228.889 473.273 231.358 473.273 234.444 C 473.273 237.531 475.697 240 478.727 240 C 481.758 240 484.182 237.531 484.182 234.444 C 484.182 231.358 481.758 228.889 478.727 228.889 Z  M 478.727 237.16 C 477.273 237.16 476.061 235.926 476.061 234.444 C 476.061 232.963 477.273 231.728 478.727 231.728 C 480.182 231.728 481.394 232.963 481.394 234.444 C 481.394 235.926 480.182 237.16 478.727 237.16 Z " fill="rgb(0,0,0)"/><path d=" M 524.303 223.457 L 469.515 223.457 C 468.545 223.457 467.818 224.198 467.818 225.185 L 467.818 232.84 C 467.818 233.827 468.545 234.568 469.515 234.568 L 469.879 234.568 C 470.727 234.568 471.455 233.951 471.576 233.086 C 472.303 229.753 475.212 227.16 478.727 227.16 C 482.242 227.16 485.152 229.753 485.879 233.086 C 486 233.951 486.727 234.568 487.576 234.568 L 506.242 234.568 C 507.091 234.568 507.818 233.951 507.939 233.086 C 508.667 229.753 511.576 227.16 515.091 227.16 C 518.606 227.16 521.515 229.753 522.242 233.086 C 522.364 233.951 523.091 234.568 523.939 234.568 L 524.303 234.568 C 525.273 234.568 526 233.827 526 232.84 L 526 225.185 C 526 224.198 525.273 223.457 524.303 223.457 Z " fill="rgb(0,0,0)"/><path d=" M 515.091 228.889 C 512.061 228.889 509.636 231.358 509.636 234.444 C 509.636 237.531 512.061 240 515.091 240 C 518.121 240 520.545 237.531 520.545 234.444 C 520.545 231.358 518.121 228.889 515.091 228.889 Z  M 515.091 237.16 C 513.636 237.16 512.424 235.926 512.424 234.444 C 512.424 232.963 513.636 231.728 515.091 231.728 C 516.545 231.728 517.758 232.963 517.758 234.444 C 517.758 235.926 516.545 237.16 515.091 237.16 Z " fill="rgb(0,0,0)"/></g></g></svg>