<svg width="120" height="120" viewBox="0 0 120 120" fill="none" xmlns="http://www.w3.org/2000/svg">
<rect width="120" height="120" fill="black" fill-opacity="0"/>
<path d="M99.273 13.6296H91.818C90.363 13.6296 89.091 15.7032 89.091 18.0744V57.7776C89.091 60.1488 87.8175 62.2224 86.364 62.2224C84.909 62.2224 83.637 60.1488 83.637 57.7776V4.44476C83.637 2.07356 82.3635 0 80.9085 0H8.18247C6.72747 0 5.45398 2.07356 5.45398 4.44476C5.45398 6.81596 6.72747 8.88959 8.18247 8.88959H29.091C31.0905 8.88959 32.727 11.556 32.727 14.8152C32.727 18.0744 31.0905 20.7408 29.091 20.7408H24.546C23.091 20.7408 21.8175 22.8144 21.8175 25.1856C21.8175 27.5544 23.091 29.6304 24.546 29.6304H29.091C31.0905 29.6304 32.727 32.2968 32.727 35.556C32.727 38.8152 31.0905 41.4816 29.091 41.4816H2.72703C1.27203 41.4816 0 43.5552 0 45.9264C0 48.2952 1.27203 50.3712 2.72703 50.3712H29.091C31.0905 50.3712 32.727 53.0376 32.727 56.2968C32.727 59.556 31.0905 62.2224 29.091 62.2224H13.6365C12.1815 62.2224 10.9095 64.296 10.9095 66.6672C10.9095 69.036 12.1815 71.112 13.6365 71.112H117.273C118.728 71.112 120 69.036 120 66.6672V53.3328C120 30.816 110.182 13.6296 99.273 13.6296V13.6296ZM111.636 53.6304H102.728C101.273 53.6304 100 51.5544 100 49.1856V27.852C100 24.888 101.819 22.8144 103.637 23.7048C109.637 26.964 113.454 37.6296 114.363 48.2952C114.546 50.964 113.272 53.6304 111.636 53.6304V53.6304ZM49.0905 93.3336C44.5455 93.3336 40.9095 99.2592 40.9095 106.666C40.9095 114.074 44.5455 120 49.0905 120C53.637 120 57.273 114.074 57.273 106.666C57.273 99.2592 53.637 93.3336 49.0905 93.3336ZM49.0905 113.184C46.9095 113.184 45.0915 110.222 45.0915 106.666C45.0915 103.111 46.9095 100.147 49.0905 100.147C51.273 100.147 53.091 103.111 53.091 106.666C53.091 110.222 51.273 113.184 49.0905 113.184Z" fill="black"/>
<path d="M117.454 80.2969H35.2725C33.8175 80.2969 32.727 82.0752 32.727 84.444V102.816C32.727 105.185 33.8175 106.963 35.2725 106.963H35.8185C37.0905 106.963 38.1825 105.482 38.364 103.406C39.4545 95.4072 43.818 89.1841 49.0905 89.1841C54.363 89.1841 58.728 95.4072 59.8185 103.406C60 105.482 61.0905 106.963 62.364 106.963H90.363C91.6365 106.963 92.727 105.482 92.9085 103.406C94.0005 95.4072 98.364 89.1841 103.637 89.1841C108.909 89.1841 113.272 95.4072 114.363 103.406C114.546 105.482 115.637 106.963 116.909 106.963H117.454C118.909 106.963 120 105.185 120 102.816V84.444C120 82.0752 118.909 80.2969 117.454 80.2969V80.2969Z" fill="black"/>
<path d="M103.637 93.3336C99.0915 93.3336 95.454 99.2592 95.454 106.666C95.454 114.074 99.0915 120 103.637 120C108.182 120 111.817 114.074 111.817 106.666C111.817 99.2592 108.182 93.3336 103.637 93.3336ZM103.637 113.184C101.454 113.184 99.636 110.222 99.636 106.666C99.636 103.111 101.454 100.147 103.637 100.147C105.818 100.147 107.637 103.111 107.637 106.666C107.637 110.222 105.818 113.184 103.637 113.184Z" fill="black"/>
</svg>
